<svg id="Capa_2" data-name="Capa 2" xmlns="http://www.w3.org/2000/svg" viewBox="0 0 1000 1000"><defs><style>.cls-1{fill:#74a4d3;}.cls-2{fill:#23639b;}.cls-3{fill:#fff;}.cls-4{fill:#303030;}.cls-5{fill:#5c5c5c;}</style></defs><path class="cls-1" d="M215.48,508.66s-152-124.4,11.61-214.6c0,0,38-144.38,171-122.91,0,0,100.26-189.25,217.42-19.51,0,0,94.06,8.52,86.67,71L627,239.77s88.79-2.29,84.56,23.07c0,0-6.14,64.35-66,106.19,0,0-55.84,35.36-218.46,104.62,0,0,129.27-60.59,146.16-87.9L469.84,359.41l25.33,41.95S287.44,514.73,247,500.54c0,0-36.81-3.58-9.37-55.28C237.64,445.26,207,466.72,215.48,508.66Z"/><path class="cls-2" d="M281.78,528.93S389,648.71,488.24,525.8c0,0,137.21,130.71,205.81-26.34,0,0,115.05,46.82,156.21-69.26,0,0,33.77-132.67-91.83-150.22l-25.55-35s36.38,72.48-78,149c0,0-161.94,89.31-170.38,89.31l24.8,42.45-106.6-42.92Z"/><polygon class="cls-3" points="561.07 364.84 523.07 356.06 523.07 219.5 561.07 219.5 561.07 364.84"/><polygon class="cls-3" points="505.83 351.72 462.91 340.94 462.91 253.15 506.18 253.15 505.83 351.72"/><polygon class="cls-3" points="447.69 401.91 406.53 421.42 406.53 285.6 447.69 285.6 447.69 401.91"/><polygon class="cls-3" points="392.19 428.25 342.41 455.71 345.75 321.92 392.19 321.92 392.19 428.25"/><path class="cls-4" d="M201.46,734.75H156.38V663.88H201v10.54H168.88v19.21H194.7v10.28H168.88v19.83h32.58Z"/><path class="cls-4" d="M225.09,734.75H212.23V663.88h43.85v11h-31V694.2h24.39v10.64H225.09Z"/><path class="cls-4" d="M257.81,717.67,270,715q2.18,10.54,16.77,10.54,6.66,0,10.24-2.7a8.1,8.1,0,0,0,3.58-6.7,9.5,9.5,0,0,0-1.63-5.37q-1.62-2.47-7-3.87l-13.26-3.53q-6.81-1.82-10.06-4.13a16.05,16.05,0,0,1-5.21-6.51,21,21,0,0,1-2-9,18.82,18.82,0,0,1,6.91-15.23q6.92-5.74,17.69-5.74a31.73,31.73,0,0,1,16,4,18,18,0,0,1,9,11.32l-11.89,3q-2.75-8.05-12.81-8c-3.89,0-6.87.83-8.92,2.49a7.8,7.8,0,0,0-3.07,6.34q0,6.08,9.65,8.51l11.79,3q10.73,2.76,14.39,8.13a20.66,20.66,0,0,1,3.65,11.86q0,10.44-7.7,16.43t-19.94,6a35.92,35.92,0,0,1-18.07-4.41A21.66,21.66,0,0,1,257.81,717.67Z"/><path class="cls-5" d="M343.29,717.67,355.43,715q2.19,10.54,16.77,10.54,6.66,0,10.24-2.7a8.11,8.11,0,0,0,3.59-6.7,9.58,9.58,0,0,0-1.63-5.37q-1.63-2.47-7-3.87l-13.27-3.53q-6.81-1.82-10.06-4.13a16.14,16.14,0,0,1-5.21-6.51,21.13,21.13,0,0,1-1.95-9,18.79,18.79,0,0,1,6.91-15.23q6.92-5.74,17.68-5.74a31.77,31.77,0,0,1,16,4,17.9,17.9,0,0,1,9,11.32l-11.89,3q-2.75-8.05-12.8-8-5.85,0-8.92,2.49a7.81,7.81,0,0,0-3.08,6.34q0,6.08,9.66,8.51l11.79,3q10.72,2.76,14.38,8.13a20.6,20.6,0,0,1,3.66,11.86q0,10.44-7.7,16.43t-19.95,6a35.88,35.88,0,0,1-18.06-4.41A21.59,21.59,0,0,1,343.29,717.67Z"/><path class="cls-5" d="M435.57,735.84q-13.81,0-21.52-10.59t-7.7-26.17q0-15.47,8.19-25.88a26.11,26.11,0,0,1,21.59-10.41q13.51,0,21.37,10.41t7.85,26q0,16.39-8.15,26.5T435.57,735.84Zm.11-10.28a14.26,14.26,0,0,0,11.43-5.71q4.68-5.72,4.67-20.72,0-12.2-3.86-19.13a12.8,12.8,0,0,0-12-6.93q-16.06,0-16.06,26.43,0,12.82,4.09,19.44A13,13,0,0,0,435.68,725.56Z"/><path class="cls-5" d="M489.85,734.75H477V663.88h43.86v11h-31V694.2h24.39v10.64H489.85Z"/><path class="cls-5" d="M554.08,734.75H540.66V674.83H522.22v-11h50.31v11H554.08Z"/><path class="cls-5" d="M666.8,663.88l-18.55,70.87H635.13l-13.82-52.13-12.55,52.13H595.9L577,663.88h13.26l13.42,51.66,12.5-51.66h12.65l13.83,51.66,13.16-51.66Z"/><path class="cls-5" d="M726.51,734.75H713.14l-5.54-16.87H680.92l-5.43,16.87H664.81l23-70.87h15.4Zm-22.26-27.1L694.14,676,684,707.65Z"/><path class="cls-5" d="M788.91,734.75H775.7l-10.77-29.13H747.34v29.13h-12.5V663.88h30.09q12.54,0,18.44,5.79t5.9,15q0,13.65-12.5,18.79Zm-41.57-39.36h15.55q6.76,0,10.07-2.9a10.12,10.12,0,0,0,3.3-8,9.63,9.63,0,0,0-3.25-7.55c-2.17-1.92-5.21-2.88-9.1-2.88H747.34Z"/><path class="cls-5" d="M846.79,734.75H801.72V663.88h44.62v10.54H814.22v19.21H840v10.28H814.22v19.83h32.57Z"/></svg>